<?xml version="1.0" encoding="UTF-8"?>
<svg id="Sample_Gallery" xmlns="http://www.w3.org/2000/svg" viewBox="0 0 1638.48 368.81">
  <defs>
    <style>
      .cls-1 {
        fill: #fff;
      }
    </style>
  </defs>
  <g id="Happy_Wedding">
    <g id="Happy_Wedding-2" data-name="Happy_Wedding">
      <g>
        <path class="cls-1" d="M242.24,0c4.28,0,4.49,3.85,4.28,8.35-1.28,2.57-3.64,3.85-6.21,5.14-2.78,5.14-7.49,8.13-11.34,12.2-7.92,7.7-14.34,16.48-22.68,23.75-2.14,6.21-6.85,10.27-10.27,15.41-1.28,2.78.43,3.85-2.35,7.06-2.35,1.93-2.57,4.07-5.78,4.07-3.42,3.21-6.42,6.63-9.2,10.27-3.85,2.78-4.28,8.77-9.2,10.27-.64,4.92-4.07,7.06-6.21,10.27-2.57,2.78-3.64,6.85-6.21,9.42-1.71,3.42-3.42,6.63-6.21,9.2.43,2.14-1.93,3.21-3,5.14-.86,1.28.43,5.14-3.21,4.07-.21,4.28-2.14,6.63-4.07,9.2-1.28,3-6.42,16.69-8.13,19.26.43,8.99-7.7,20.76-9.2,27.82-4.49-.64-8.77,2.78-12.2,0-1.71-5.99.43-7.49,1.93-12.41,1.93-3.64,8.77-27.39,11.13-30.6-1.93-7.49-5.14-13.91-8.13-20.54-.43-2.35-3.64-1.93-3-5.14-6.42-5.56-13.91-10.06-22.68-13.27-3.64.43-5.14,4.28-7.28,7.28-1.07,1.5-2.35,2.78-4.07,5.14-6.21,8.13-14.77,18.4-22.47,26.54-1.07,4.28-4.28,6.21-5.14,10.27-5.35,2.57-6.63,9.2-12.41,11.34-.64,4.28-3.21,6.42-5.14,9.2-1.5.86-1.5,3.42-2.14,5.14-2.78-.21-3,3.64-4.07,5.14-.64,1.07-1.5,1.28-1.93,2.14-.86.86-.43,1.93-1.07,3-.21.43-1.93.86-2.14,1.07-1.07,2.57-2.14,6.85-5.14,9.2.64,4.71-1.71,5.99,0,9.42-5.56,3.21-6.42,11.34-15.41,11.13-3.21-3.21-1.5-8.35-1.07-13.27,2.78-4.28,5.99-7.7,7.28-13.27,6.42-7.28,10.49-16.91,17.55-23.75,1.28-5.14,5.56-7.28,7.06-12.2.43-3.21-3,2.57-3-1.07-1.71,0-2.78-.86-3.21-2.14-2.78-.43-3.21-3.42-5.99-4.07-1.07-2.14-1.93-4.49-4.28-5.14,0-4.07-2.14-5.99-3-9.2-.21-6.63,1.93-11.13,3-16.48,4.07-2.35,6.21-6.85,9.42-10.27,3.64-1.07,5.14-4.28,9.2-5.14,1.5-.86,1.5-3.21,4.07-3,1.28-1.07,3.85-1.07,4.07-3.21,4.07.64,5.99-.86,8.35-1.93,1.5-1.5,4.71-1.5,5.99-3.21,8.35-.64,15.84-1.71,23.75,0,7.92-1.28,8.56-9.84,15.41-12.2,4.71-11.98,11.34-22.26,20.54-29.96-.86-2.78,1.5-2.57,1.07-5.14,2.35.43,2.78-2.78,4.07-4.07.64-.64,2.35-.21,3-1.07.64-.64-.21-2.14,1.07-1.93,1.07-4.28,4.71-5.56,8.13-7.28,8.99,11.98-9.63,17.55-11.13,28.89-4.28,1.93-5.56,6.85-9.42,9.2-.64,5.35-6.21,5.99-5.99,12.2-3.21,1.28-4.49,4.07-6.21,6.21-1.71,2.57-3.64,4.49-5.14,7.28,1.5,4.07,7.49,3.42,11.34,5.14,1.71,2.78,5.14,3.64,7.06,6.21,2.57,1.93,4.28,4.49,7.28,5.99,1.71,3,3,6.63,6.21,8.35,0,4.49,3.42,5.99,4.07,10.27,5.78-3.64,6.42-12.84,12.2-16.48,2.78-6.85,7.7-11.56,10.27-18.4,2.57-2.35,4.07-5.56,6.21-8.35,1.93-2.57,4.71-5.14,6.21-8.13,0-3,5.99-3.85,6.21-7.28,0-.64,2.14-4.07,3-5.14.86-.86,2.57-3.21,4.07-3,.43-4.28,3.64-5.35,4.28-9.2,3.85-2.57,6.21-6.85,10.27-9.42,1.5-6.21,6.42-10.06,10.27-14.34,3.85-4.28,7.49-8.77,12.2-12.2,1.28-3.64,3.64-5.99,5.14-9.42,5.99-4.71,14.55-6.63,17.55-14.34h1.93ZM62.47,106.79c-3.64,2.35-8.77,2.35-10.27,4.28-.21.21-1.5-.21-1.93,0-1.93.86-1.93,1.71-4.07,1.93-1.5.21-2.78,0-4.28,0,.21,2.35-2.78,3-4.07,4.07-4.92,4.07-8.35,8.13-12.2,12.41-.21,1.93-.86,3.42-2.14,4.07v9.2c1.28,3.21,3.42,5.56,5.14,8.35,2.14,2.14,5.35,3.42,8.13,5.14,4.71-.86,5.78-5.14,8.35-8.35,1.93-3.42,5.35-5.56,6.21-10.27,5.56-4.07,9.63-10.06,13.27-16.26,2.35.86,2.14-2.35,3-3.21.64-.43,1.71-.43,2.14-1.07,2.78-2.35,3.64-6.63,6.21-9.2-4.07-.86-8.35-1.28-13.48-1.07Z"/>
        <path class="cls-1" d="M310.51,150.66c-3.64,1.93-7.7,7.28-11.13,8.99-3.64,1.71-2.78,3.21-6.42,5.14-3.64,1.93-6.42,4.71-10.06,6.63-1.93.86-4.28.86-6.21,1.93-2.14,1.28-2.57,2.35-5.14,2.14-3.64,3.64-10.27,2.57-13.27,6.85-7.49.86-12.63.43-19.69,1.71,0-2.14-4.28-.43-5.99-1.07-.21-2.57-4.07-1.5-4.28-4.07-1.93-.21-.21-4.49-3-4.07-3-.43-3.85,2.57-6.21,3-2.78.86-6.85,3-10.27,5.14-1.5,1.07-7.06,2.14-10.27,4.28-1.5.86-9.84,3.21-13.27,3,.43,0-3-2.14-5.14-1.07-4.92-4.49-7.49-11.34-5.14-20.54,2.57-2.78,4.07-6.85,5.14-11.34,3.21-2.78,5.14-7.06,8.13-10.27,5.14-6.42,11.98-11.34,17.55-17.33,3.64-2.35,7.06-4.71,9.2-8.35,5.35-.21,6.85-4.07,10.27-5.99,4.07-1.93,9.2-2.57,11.34-6.21,9.42-1.28,15.41-5.99,24.61-7.28,7.49,1.5,10.7,8.99,8.13,17.55-1.71,1.93-3,4.28-5.99,5.14.43,2.14-2.14,1.5-2.14,3-.21,1.5-2.57.86-4.07,1.07-3.85-5.35,2.78-7.7,3-12.41-5.14-2.57-8.77,2.14-15.41,1.07-3,2.14-7.06,2.57-10.27,4.07-3,1.71-4.71,4.49-8.13,5.14-5.78,3.42-9.63,8.99-16.48,11.34-2.78,4.07-5.99,7.7-9.2,11.34-2.57.86-3.21,3.64-5.14,5.14-1.93,1.5-2.14,4.71-5.14,5.14-1.71,6.63-5.56,10.7-6.21,18.4,6.21,3.64,11.77-1.71,17.55-1.93,0-1.93,1.71-1.28,3-2.14,1.28-.64,1.93-1.28,3-1.93,1.93-1.07,6.42-1.07,6.21-4.28,2.57.21,4.92.21,6.21-1.07,2.35-.21,1.93-3.42,5.14-3,.86-4.28,3.64-6.63,4.07-11.34,2.14-2.35,5.14-3.85,5.14-8.13,8.35-2.78,8.56-13.48,20.54-12.41,2.57,1.07,2.57,4.49,4.07,6.21.64,6.42-4.92,6.63-5.14,12.41-3.21,1.71-5.14,5.14-7.06,8.13-2.78,1.07-4.28,3.21-6.21,5.14-1.5,1.5-5.56,2.14-4.07,6.21-1.07,3.64,4.49,1.07,5.14,3,1.71-.86,4.28-.43,6.21-.86,3.42-1.07,5.99-.21,9.2-1.93,3.21-1.5,7.06-2.57,10.27-4.07,6.21-2.78,12.2-5.35,18.4-8.13,2.57-3,5.56-4.49,8.56-6.21,4.28-2.35,7.92-5.35,12.84-8.13,0,0,2.57,7.49,3.21,7.28Z"/>
        <path class="cls-1" d="M451.76,123.7c.43,0-12.63,14.12-12.84,14.12-3,1.28-38.52,17.98-38.95,19.26-3.64.64-6.63,2.57-9.2,5.14-5.56,2.78-12.84,6.85-19.05,10.91-2.14.43-4.07,1.28-5.99,2.14-.43,2.57-5.78.86-6.42,3.21h-7.28c-3.85,0-7.7,0-11.34-1.07-5.14-5.14-7.92-12.2-11.34-18.4-5.14,5.56-20.97,30.39-25.68,31.89.86,3.21-2.14,4.07-1.93,7.06-5.78,3.21-20.54,28.89-25.68,35.95-1.28.43-2.35,1.71-2.14,3.21-2.78,4.28-6.63,7.7-9.2,12.2-5.78,9.63-28.25,47.29-40.23,47.29h-.86c-3.42-3.85-1.93-13.48-2.14-18.4,1.93-5.56,4.49-10.7,5.35-16.48,2.35-1.5.43-5.99,3-7.28,0-2.35,2.14-3.85,2.14-6.21l-.21-1.93c2.78-.64,2.35-4.71,5.14-5.14-.43-3,6.85-17.12,9.42-18.4-2.57-6.63,28.68-42.16,31.67-50.51,1.93-1.07,18.4-17.76,18.62-18.4,3.64-4.49,28.25-27.39,32.74-27.82,1.93-5.78,39.8-27.82,47.29-27.82,6.85,0,10.06,4.71,14.34,9.42-.64,1.28.21,3,1.07,4.07v.86c0,2.57-1.07,4.92-1.07,7.49l1.07,1.93v2.14c0,7.7-1.5,15.19-3,22.47.43.43,1.07.64,1.5.64,4.71,0,47.72-20.76,54.14-23.97l7.06.43ZM322.28,139.53c-2.14,1.71-3.21,4.07-6.21,4.07-1.28,4.92-6.63,6.21-9.2,10.27-4.49,2.35-5.99,7.7-10.27,10.27-2.78.21-1.93,4.28-4.07,5.14-.64,2.78-4.28,2.78-4.28,6.21-3.64.43-6.21,8.99-10.27,10.27-.21.43-14.98,21.83-16.26,23.54-1.5,5.35-6.85,7.49-7.28,13.48-3.85,3.42-4.28,8.77-8.13,12.2v5.14c-3.21,2.14-3.85,6.42-6.21,9.2.43,4.92-1.71,7.92-3.21,12.41,1.07,3.21-1.28,3-1.93,5.14-.43.21-1.07.43-1.07.86,0,1.5,1.5,2.57,1.5,3.85,0,.64-.21,1.07-.43,1.5,3.64-.86,4.92-4.28,6.21-7.28,3-1.93,5.14-4.71,5.99-8.13,4.49-3,5.35-9.2,9.42-12.41v-1.93c1.5-2.78,4.28-6.63,5.99-9.42l2.14-.86c.86-1.28-.64-4.49,2.14-4.28,3.85-6.42,9.2-11.98,13.27-18.41-.21-1.93,1.28-3.42,3-4.07,1.28-1.93.86-4.28,2.14-6.21h2.14v-2.14c7.92-9.42,13.7-23.54,23.54-30.82.21-4.07,4.28-5.56,5.14-9.2,2.57-3.64,10.49-14.55,10.49-18.83,0-.64-.21-.86-1.28-.64-.86.64-1.93,1.07-3,1.07ZM370.43,108.71c-.21,1.28-1.5,1.93-1.93,3-5.14-.64-6.42,4.28-11.34,4.07-1.93,3.21-4.71,6.21-7.92,8.35-.86,5.35-7.06,15.62-10.06,20.54-1.71,2.14-3.21,4.07-3.64,7.06,4.92,3.21,6.42,11.77,13.91,11.77,5.56,0,11.77-3.64,18.19-3.64-.21-2.35,3.64-3.42,5.35-4.07,6.21-7.92,9.42-22.26,9.42-32.1,0-4.49-.64-8.99-2.57-13.05-2.78-1.07-5.35-1.93-8.35-1.93h-1.07Z"/>
        <path class="cls-1" d="M574.38,123.7c.43,0-12.63,14.12-12.84,14.12-3,1.28-38.52,17.98-38.95,19.26-3.64.64-6.63,2.57-9.2,5.14-5.56,2.78-12.84,6.85-19.05,10.91-2.14.43-4.07,1.28-5.99,2.14-.43,2.57-5.78.86-6.42,3.21h-7.28c-3.85,0-7.7,0-11.34-1.07-5.14-5.14-7.92-12.2-11.34-18.4-5.14,5.56-20.97,30.39-25.68,31.89.86,3.21-2.14,4.07-1.93,7.06-5.78,3.21-20.54,28.89-25.68,35.95-1.28.43-2.35,1.71-2.14,3.21-2.78,4.28-6.63,7.7-9.2,12.2-5.78,9.63-28.25,47.29-40.23,47.29h-.86c-3.42-3.85-1.93-13.48-2.14-18.4,1.93-5.56,4.49-10.7,5.35-16.48,2.35-1.5.43-5.99,3-7.28,0-2.35,2.14-3.85,2.14-6.21l-.21-1.93c2.78-.64,2.35-4.71,5.14-5.14-.43-3,6.85-17.12,9.42-18.4-2.57-6.63,28.68-42.16,31.67-50.51,1.93-1.07,18.4-17.76,18.62-18.4,3.64-4.49,28.25-27.39,32.74-27.82,1.93-5.78,39.8-27.82,47.29-27.82,6.85,0,10.06,4.71,14.34,9.42-.64,1.28.21,3,1.07,4.07v.86c0,2.57-1.07,4.92-1.07,7.49l1.07,1.93v2.14c0,7.7-1.5,15.19-3,22.47.43.43,1.07.64,1.5.64,4.71,0,47.72-20.76,54.14-23.97l7.06.43ZM444.91,139.53c-2.14,1.71-3.21,4.07-6.21,4.07-1.28,4.92-6.63,6.21-9.2,10.27-4.49,2.35-5.99,7.7-10.27,10.27-2.78.21-1.93,4.28-4.07,5.14-.64,2.78-4.28,2.78-4.28,6.21-3.64.43-6.21,8.99-10.27,10.27-.21.43-14.98,21.83-16.26,23.54-1.5,5.35-6.85,7.49-7.28,13.48-3.85,3.42-4.28,8.77-8.13,12.2v5.14c-3.21,2.14-3.85,6.42-6.21,9.2.43,4.92-1.71,7.92-3.21,12.41,1.07,3.21-1.28,3-1.93,5.14-.43.21-1.07.43-1.07.86,0,1.5,1.5,2.57,1.5,3.85,0,.64-.21,1.07-.43,1.5,3.64-.86,4.92-4.28,6.21-7.28,3-1.93,5.14-4.71,5.99-8.13,4.49-3,5.35-9.2,9.42-12.41v-1.93c1.5-2.78,4.28-6.63,5.99-9.42l2.14-.86c.86-1.28-.64-4.49,2.14-4.28,3.85-6.42,9.2-11.98,13.27-18.41-.21-1.93,1.28-3.42,3-4.07,1.28-1.93.86-4.28,2.14-6.21h2.14v-2.14c7.92-9.42,13.7-23.54,23.54-30.82.21-4.07,4.28-5.56,5.14-9.2,2.57-3.64,10.49-14.55,10.49-18.83,0-.64-.21-.86-1.28-.64-.86.64-1.93,1.07-3,1.07ZM493.06,108.71c-.21,1.28-1.5,1.93-1.93,3-5.14-.64-6.42,4.28-11.34,4.07-1.93,3.21-4.71,6.21-7.92,8.35-.86,5.35-7.06,15.62-10.06,20.54-1.71,2.14-3.21,4.07-3.64,7.06,4.92,3.21,6.42,11.77,13.91,11.77,5.56,0,11.77-3.64,18.19-3.64-.21-2.35,3.64-3.42,5.35-4.07,6.21-7.92,9.42-22.26,9.42-32.1,0-4.49-.64-8.99-2.57-13.05-2.78-1.07-5.35-1.93-8.35-1.93h-1.07Z"/>
        <path class="cls-1" d="M537.15,162.22c1.5-1.07,3.85-8.56,5.35-9.84,1.28-1.07,6.85-8.35,6.63-10.7,1.28-.43,2.35-1.28,3.21-2.14.43-.43.64-1.71.86-1.93.43-.43,1.71.21,2.14,0,1.71-1.71,3.64-3.85,4.07-6.21,2.14.43,3.21-1.71,4.07-2.14s2.35-3,3.21-3.42c.43-.21.64-1.93,1.07-1.93,1.71-.86,4.07-3.21,9.2-2.14,1.5,1.93,2.78,4.07,4.07,6.21-3,8.35-10.91,11.56-15.41,18.4-2.57,3-8.13,10.49-10.7,13.48-1.71,3.85-6.42,4.71-6.21,10.27,2.14,1.93,6.63.64,8.13-1.07,8.35-2.35,16.26-4.92,22.68-9.2,1.93-.21,4.49-1.5,6.21-3.21.86-.86,2.14-1.28,3-1.93.86-.86,2.14-1.28,3-2.14,1.5-1.5,5.78-3.42,8.35-5.14,1.07-.64,1.93-1.28,3-2.14,5.35-3.85,10.27-10.91,15.41-16.26,1.28-3.21,3.42-5.56,6.21-7.28,2.57-1.71,2.14-5.99,7.28-5.14,3.85-.64,2.57,4.28,5.14,5.14-2.78,10.7-10.91,15.84-16.48,23.54-7.28,6.21-10.27,16.69-17.55,22.68-.64,4.71-1.71,9.2-6.21,10.27.86,3.85-1.71,4.49-.86,8.13-4.49,2.14-5.35,7.7-7.28,12.41-1.07,2.14-2.14,4.07-3,6.21.21,3.42-4.71,1.5-3.21,6.21,2.78,3,6.63-1.5,9.2-2.14,3-1.5,6.85-3.64,10.27-4.49,13.7-5.35,26.96-12.84,42.16-16.91,4.49-1.28,10.27-1.07,14.34-4.07,8.13,1.28,11.34-4.07,16.48,0,.86,6.85-3.85,8.35-9.2,9.2-7.7.86-14.98,3.21-21.61,5.14-3.64.86-10.06,2.57-14.34,5.14-.64,1.93-5.78-.21-6.21,1.93-8.56,3.64-17.12,8.77-25.68,12.2-8.35,3.64-16.05,8.35-23.54,12.41-3.21,3.21-3.64,9.42-7.28,12.41-1.28,5.14-3.64,9.2-6.21,13.27-1.5,4.92-4.49,8.35-5.99,13.27-4.28,1.93-4.28,8.13-7.28,11.34-4.49,8.56-9.42,16.69-14.34,24.61-.86,1.71-1.5,3.64-3.21,5.14,0,.21-.86,1.07-.86,1.07-1.07,1.5-.86,5.78-4.28,5.14,0,5.99-6.21,5.99-5.99,12.41-2.78,1.07-3.85,3.64-7.28,4.07-.64,2.35-.86,5.14-2.14,7.28-5.35,4.07-8.56,10.49-15.41,13.27-1.07,1.93-2.57,3.64-3,6.21-5.78.43-7.7,4.71-11.34,7.06-7.28,1.5-16.05,4.49-22.47,1.07-2.78-6.63-4.71-13.7-4.28-23.54,1.07-5.35,3.85-8.56,4.28-14.34,5.14-5.99,7.06-14.98,12.2-20.54.64-4.92,4.49-6.63,6.21-10.27,1.5-3.64,3.85-6.63,7.28-8.35.86-2.78,2.35-5.14,3-8.13,6.63-1.71,7.28-9.2,12.41-12.41,2.35-2.78,4.71-4.92,7.06-8.13,3-4.07,9.2-7.06,12.41-12.41,6.63-3.21,11.98-8.13,18.4-12.2,2.14-1.5,4.07-3,6.21-4.28.86-.43,2.35-1.5,3-1.93,1.07-.64,3-.43,4.28-1.07.86-.64,1.07-2.57,1.93-3,1.28-.86,2.78-.43,4.07-1.07,4.49-2.35,8.56-4.28,12.41-7.28,4.92-10.49,9.84-20.97,14.34-31.89.43-2.57,3.21-3,3.21-5.99,3-.21,1.28-4.92,3-6.21,2.57-.64,2.35-3.85,3-6.21-3.64-.86-5.56,2.78-8.13,4.07-2.35,1.28-5.56,1.93-8.13,3.21-.64.21,0,.86-1.07.86-.86.21-5.14,2.35-7.28,3.21-2.57.86-5.56,1.71-8.13,3-2.14-.43-2.78.64-4.07,1.07-7.49,0-15.84.64-20.54-2.14-3.21-7.28,1.28-13.27,2.78-19.05ZM554.91,235.83c-3,2.14-6.85,3.42-9.42,6.21-6.21,3.85-13.27,7.28-18.4,12.2-8.99,6.63-17.12,14.34-24.61,22.68-3.42,1.71-4.71,5.56-7.28,8.13-.64,2.14-2.78,2.78-4.07,4.07-1.28,1.5-1.93,3.64-4.07,4.28-3,7.06-7.7,13.05-11.34,19.47-3.85,6.63-7.49,13.48-10.27,21.61-1.28,7.7-3.21,15.84,1.07,21.4,8.13.86,10.91-4.07,17.33-5.14,2.14-5.78,8.99-6.85,11.34-12.2,3.64-.64,4.07-4.92,5.14-6.21,1.71-2.14,4.49-4.07,6.21-6.21,3.42-4.28,6.85-8.99,9.2-14.34,4.07-2.14,4.92-6.63,7.28-10.27,2.14-3.42,4.92-6.63,7.06-10.27,2.35-3.64,4.07-7.49,6.21-11.34,2.14-3.64,5.56-7.7,6.21-12.2,4.28-3.64,4.92-10.91,9.2-14.55,2.14-5.99,4.92-11.56,8.35-16.26-.21-.86-.21-2.14-1.07-2.14-1.5.21-1.93,1.5-4.07,1.07Z"/>
        <path class="cls-1" d="M964.74,5.14c6.85,1.07,5.35,10.7,3.21,15.41-.43,8.99-1.07,12.63-3.85,25.47-2.14,6.85-3.64,13.27-5.99,19.47-.21.43-1.07,0-1.07,1.07-.21,3-1.71,1.71-2.14,5.14-.43,3.85-2.78,7.28-3,12.41-4.28,2.14-3.64,9.42-8.35,11.13-.64,5.78-4.71,8.35-5.99,13.48-5.99,5.35-5.78,8.35-11.13,14.12-5.35,5.78-11.77,10.27-16.48,16.48-3.42,2.14-6.85,4.28-10.27,6.21-1.71,3.85-4.92,5.99-8.35,8.13-2.57.21-1.07,4.49-5.14,3-1.71,1.07-1.93,3.42-4.07,4.28-2.14,3.21-6.85,4.07-8.13,8.13-14.55,6.42-23.75,18.19-46.23,16.48-2.35-1.5-5.56-2.14-8.35-3.21-2.35-3-4.49-6.21-7.06-9.2-1.28-3.42-.43-9.2-2.14-12.2,1.71-5.99,1.28-8.35,2.14-14.34-6.85.86-8.13,7.49-13.48,10.06-5.56,3.42-9.63,8.56-15.41,12.41-3,2.14-6.63,4.28-10.27,7.28-2.35,1.93-4.49,3.64-7.06,5.99-1.28,1.28-3,1.93-5.14,3.21-3,1.71-8.99,4.49-14.34,6.21-6.63.43-12.2-.43-16.48-2.14-2.78-5.14-5.56-10.7-6.21-17.33-.86-10.06,4.07-22.04,4.07-32.96,2.57-5.14,5.14-10.06,6.21-16.48,3-1.93,3.64-5.99,6.21-8.13.43-4.28,2.35-7.28,5.14-9.42,2.78-6.42,7.49-11.34,11.34-17.33.86-1.5.86-3.42,1.93-5.14,2.35-3.64,6.63-7.7,9.2-12.41,2.14-2.78,4.49-5.14,7.28-7.06.64-4.28,3.85-5.78,9.2-5.14,4.92,3.64,1.93,10.27-1.93,13.27s-5.14,8.56-10.27,10.27c-.21,3.85-3.21,4.92-4.28,8.35-1.71,1.07-3,3.21-4.07,5.14-1.07,1.71-1.93,3.21-3,5.14-2.14,3.42-5.14,7.06-6.21,11.13-3.85,4.07-6.63,9.2-9.2,14.55-2.57,5.14-4.49,11.13-7.28,16.26,1.5,4.28-1.28,7.28-1.93,10.27-.64,2.14.43,4.49,0,6.21-.43.86-3,1.07-2.14,3.21,1.07,7.49-.86,13.91,5.14,19.47,16.91-2.14,27.18-13.27,38.95-21.61.86-.64,1.93-1.93,3.21-2.14,1.5,0,2.57-2.78,4.07-4.07.43-.21,1.71.43,2.14,0,.64-.86,1.07-1.28,1.93-1.93,1.07-1.07,5.99-3.85,6.21-6.21,0-1.71,7.28-2.78,7.28-7.28,3-1.71,6.63-4.92,8.13-9.2,3.64-2.14,5.35-6.21,8.13-9.2,1.07-4.28,2.14-8.13,3.21-12.41,2.35-5.78,5.99-10.49,7.06-17.33,8.13-3.21,5.56-16.48,14.55-16.48,7.28,0,7.49,6.63,5.14,12.2-.21.64-1.07,0-1.07,1.07-.21,1.5-.64,1.93-1.07,3.21-3.21,7.49-5.99,12.84-7.28,19.47-1.93.86-2.78,3.21-4.07,5.14-.64.86-1.5,1.28-1.93,1.93-.86.86-.43,2.14-1.07,3.21-2.14,3.42-4.49,6.85-6.21,11.13-3.21,8.56-3.85,18.62-6.21,28.89.43,3.64,2.78,5.56,2.14,10.27,1.71.86,3.21,2.35,4.07,4.07,1.5,0,3-.21,3,1.07,17.33.64,24.61-8.35,35.95-13.27,4.07-3.64,8.13-7.06,12.41-10.27,8.56-6.21,16.05-13.48,23.54-20.76,3-.64,4.28-3.42,7.28-4.07.64-2.57,3.64-3,4.07-5.99,4.28.21,3.21-4.49,6.21-5.14,1.07-2.78,4.07-3.64,5.14-6.21,3-4.07,3.21-2.78,4.92-8.13,4.07-3.21,5.56-8.99,8.35-13.27,3.42-3.85,6.21-9.2,7.28-13.48,2.57-5.99,3.42-10.91,5.99-15.41,0-2.78,1.5-5.56,2.14-8.13.64-2.78.43-4.92,1.93-7.28,1.5-4.28,3-6.85,2.78-12.41,1.5-6.21,1.93-12.84,3-23.11.43-1.5,1.93-1.71,2.14-3.21h1.93Z"/>
        <path class="cls-1" d="M1030.23,161.57c-3.21,5.14-31.67,22.04-47.72,23.11-13.48.86-25.89-2.35-34.03-7.92-4.92-.64-6.63-6.42-6.21-10.27-.86-4.28-2.14-9.63-.86-14.55,0,0,.86-.43.86-1.07.64-2.14,4.07-12.41,6.63-13.48,1.07-3,2.14-6.21,5.14-7.28,2.35-5.78,8.13-8.35,11.13-13.27,5.78-2.57,11.34-5.14,15.41-9.42,7.49.64,10.49-3.21,17.55-3,3,2.35,3.21,5.14,3,9.2,0,1.71-.43,1.28-.86,2.14-.86,1.5-.43,5.14-2.14,7.06,0,8.35-7.92,17.55-8.56,25.04-3,1.5-5.14,5.99-7.06,8.35-1.93,2.35-4.92,3.21-6.21,5.99-4.92,1.71-7.49,5.56-12.41,7.28,3.21,2.78,8.35,4.07,11.34,4.92h2.14c11.34-.64,28.25-7.7,37.24-14.34,1.93-1.5,6.21-3.64,8.13-4.49,1.93-.64,5.99-2.78,8.13-2.78,0,.43,0,7.7-.64,8.77ZM981.65,118.77c-6.21,3.42-9.63,9.84-15.41,12.41-3.85,7.06-13.48,19.26-13.7,30.17,3.21.21,7.06-1.5,8.35-2.14,2.57-1.5,4.07-2.35,6.21-4.07,6.42-5.14,14.77-19.9,18.62-26.11,1.93-3,4.28-6.21,4.28-10.27-.21-.64-.21-1.93-1.07-1.93-2.78,1.93-5.56,1.07-7.28,1.93Z"/>
        <path class="cls-1" d="M1196.09,142.96c-5.35,3.42-5.56,7.49-9.84,9.84-3.85,3-3.21,3-7.7,5.35-2.35,4.07-6.85,4.07-10.7,6.85-5.35,3.85-14.55,8.77-14.98,8.56-2.57.64-10.49,4.92-11.56,5.78-4.71.64-8.77,2.14-13.7,3.21-2.57.64-2.78,2.14-7.06,2.14-3.85,3-13.05,3.42-18.83,3.42s-9.63-.43-9.63-8.56c0-9.63,5.78-16.26,8.99-24.18-.21-.64-.43-.86-.64-.86-1.07,0-3,3-3.85,3-.43,0-.43,2.57-.86,2.57-1.71,0-3,4.49-5.78,4.49-.21,0-.64,0-.86-.21-2.57,3.85-8.35,4.49-11.13,8.13-4.92,1.93-8.99,4.92-13.48,7.28-3.85,2.78-8.35,3.64-11.34,7.28-6.21,1.28-12.63.86-17.76,3.21h-11.34c-2.35-3.21-5.35-6.85-5.35-9.84,0-7.06,2.57-11.56,3.21-17.76,7.7-7.7,13.48-21.61,22.68-24.61,2.35-3.85,7.06-5.35,9.2-9.42.43.21.86.21,1.28.21,2.35,0,3.42-2.35,4.92-3.21,2.14-1.07,5.14-.64,6.21-3,5.35-2.35,9.63-3.21,13.27-5.14,2.35-1.28,6.63-1.07,8.35-3.21,4.71-.64,10.06-.86,14.34-1.93,8.56,1.07,16.48,3.42,22.47,7.06,11.13-11.98,21.19-25.9,30.82-39.38,4.28-7.7,11.77-12.2,15.41-20.54,3-3.21,7.06-5.35,8.35-10.27,1.07-1.71,4.07-1.5,4.07-4.49v-.64c2.14-.21,1.93-3,4.28-3h.86c1.5-3.85,3.85-7.06,6.21-10.27,4.49-3.85,10.91-5.56,13.27-11.34h3c1.93,0,3.42.21,4.28,1.07v.64c0,1.07,1.07.86,1.07,1.93,0,7.7-6.85,8.35-7.28,16.91-2.35.64-2.78,3.42-5.14,4.07-.86,6.21-4.71,10.06-7.28,14.34-2.35,3.64-5.56,10.7-9.2,11.34-2.35,11.98-11.56,17.12-16.48,26.75-6.21,5.35-17.98,19.69-21.19,19.69-.43,0-.86,0-1.28-.21,0,4.92-8.56,5.56-9.2,11.34-7.28,3.85-11.98,16.05-17.33,16.05-.43,0-.86,0-1.28-.21-3,3.85-5.14,8.56-9.2,11.13-.64,9.42-7.28,12.63-8.13,21.61.64,1.28,2.14,1.71,3.64,1.71,5.35,0,7.28-3.64,12.2-3.64h1.5c5.35-3.21,9.2-.86,14.34-3.42,5.35-2.57,5.14-1.93,10.7-3.64,9.63-6.85,6.63-4.92,16.05-9.42,4.71-3.21,4.49-1.28,8.13-5.35,6.21-1.93,5.14-3.85,11.34-5.35,4.71-3.64,8.99-5.78,12.41-9.84,2.57,3.21.21,3.64,2.57,5.99ZM1109.2,125.62c0-1.93-4.92-.43-4.92-1.5,0-1.71,1.71-1.5-1.07-1.5h-2.57c-6.63,0-11.98,1.28-17.12,3-.21,0-.21.86-.86,1.07-5.35,1.71-10.49,2.14-14.55,6.21-22.26,12.2-34.03,30.17-34.88,30.82-1.93,4.28-5.14,7.28-5.14,13.7,0,2.57,1.28,2.57,2.78,2.57,1.71,0,3.64-.64,5.14-.64.86,0,1.71.21,2.35.64,3.42-1.71,6.63-3.64,11.34-4.07,3.21-2.14,6.42-4.49,11.34-5.14,10.7-8.77,25.89-13.05,34.88-23.54.21,0,.43.21.64.21,3,0,6.85-5.35,6.85-4.28,0-.21,0-.64-.21-1.07,3.42-.86,12.2-8.13,12.2-11.56,0-1.71-3-4.92-6.21-4.92ZM1183.24,59.49c-1.5,1.93-2.35,4.28-4.07,6.21-.64.64-5.78,5.56-5.14,5.56-1.93,0-1.71,5.78-4.28,5.78h-.64c-.21,0-.43.21-.43.43,0,3.21-3.85,7.06-7.06,7.7,0,4.92-4.28,5.99-5.14,10.27-1.5,1.5-3.85,2.14-6.21,3.21.21.64.21,1.07.21,1.5,0,2.57-4.49,4.28-4.49,7.49,0,.43.43.86,1.28,1.28,4.92-4.71,10.91-9.84,14.34-14.55,3.64-4.92,13.48-13.91,13.48-14.55,0-.21-.21-.86-.21-1.28,0-.64,1.93-.86,1.93-4.07,0-2.35,16.91-19.9,16.91-25.25,0-.43,0-.86-.21-1.07-3.21,4.07-7.06,7.49-10.27,11.34Z"/>
        <path class="cls-1" d="M1343.54,142.96c-5.35,3.42-5.56,7.49-9.84,9.84-3.85,3-3.21,3-7.7,5.35-2.35,4.07-6.85,4.07-10.7,6.85-5.35,3.85-14.55,8.77-14.98,8.56-2.57.64-10.49,4.92-11.56,5.78-4.71.64-8.77,2.14-13.7,3.21-2.57.64-2.78,2.14-7.06,2.14-3.85,3-13.05,3.42-18.83,3.42s-9.63-.43-9.63-8.56c0-9.63,5.78-16.26,8.99-24.18-.21-.64-.43-.86-.64-.86-1.07,0-3,3-3.85,3-.43,0-.43,2.57-.86,2.57-1.71,0-3,4.49-5.78,4.49-.21,0-.64,0-.86-.21-2.57,3.85-8.35,4.49-11.13,8.13-4.92,1.93-8.99,4.92-13.48,7.28-3.85,2.78-8.35,3.64-11.34,7.28-6.21,1.28-12.63.86-17.76,3.21h-11.34c-2.35-3.21-5.35-6.85-5.35-9.84,0-7.06,2.57-11.56,3.21-17.76,7.7-7.7,13.48-21.61,22.68-24.61,2.35-3.85,7.06-5.35,9.2-9.42.43.21.86.21,1.28.21,2.35,0,3.42-2.35,4.92-3.21,2.14-1.07,5.14-.64,6.21-3,5.35-2.35,9.63-3.21,13.27-5.14,2.35-1.28,6.63-1.07,8.35-3.21,4.71-.64,10.06-.86,14.34-1.93,8.56,1.07,16.48,3.42,22.47,7.06,11.13-11.98,21.19-25.9,30.82-39.38,4.28-7.7,11.77-12.2,15.41-20.54,3-3.21,7.06-5.35,8.35-10.27,1.07-1.71,4.07-1.5,4.07-4.49v-.64c2.14-.21,1.93-3,4.28-3h.86c1.5-3.85,3.85-7.06,6.21-10.27,4.49-3.85,10.91-5.56,13.27-11.34h3c1.93,0,3.42.21,4.28,1.07v.64c0,1.07,1.07.86,1.07,1.93,0,7.7-6.85,8.35-7.28,16.91-2.35.64-2.78,3.42-5.14,4.07-.86,6.21-4.71,10.06-7.28,14.34-2.35,3.64-5.56,10.7-9.2,11.34-2.35,11.98-11.56,17.12-16.48,26.75-6.21,5.35-17.98,19.69-21.19,19.69-.43,0-.86,0-1.28-.21,0,4.92-8.56,5.56-9.2,11.34-7.28,3.85-11.98,16.05-17.33,16.05-.43,0-.86,0-1.28-.21-3,3.85-5.14,8.56-9.2,11.13-.64,9.42-7.28,12.63-8.13,21.61.64,1.28,2.14,1.71,3.64,1.71,5.35,0,7.28-3.64,12.2-3.64h1.5c5.35-3.21,9.2-.86,14.34-3.42,5.35-2.57,5.14-1.93,10.7-3.64,9.63-6.85,6.63-4.92,16.05-9.42,4.71-3.21,4.49-1.28,8.13-5.35,6.21-1.93,5.14-3.85,11.34-5.35,4.71-3.64,8.99-5.78,12.41-9.84,2.57,3.21.21,3.64,2.57,5.99ZM1256.65,125.62c0-1.93-4.92-.43-4.92-1.5,0-1.71,1.71-1.5-1.07-1.5h-2.57c-6.63,0-11.98,1.28-17.12,3-.21,0-.21.86-.86,1.07-5.35,1.71-10.49,2.14-14.55,6.21-22.26,12.2-34.03,30.17-34.88,30.82-1.93,4.28-5.14,7.28-5.14,13.7,0,2.57,1.28,2.57,2.78,2.57,1.71,0,3.64-.64,5.14-.64.86,0,1.71.21,2.35.64,3.42-1.71,6.63-3.64,11.34-4.07,3.21-2.14,6.42-4.49,11.34-5.14,10.7-8.77,25.89-13.05,34.88-23.54.21,0,.43.21.64.21,3,0,6.85-5.35,6.85-4.28,0-.21,0-.64-.21-1.07,3.42-.86,12.2-8.13,12.2-11.56,0-1.71-3-4.92-6.21-4.92ZM1330.7,59.49c-1.5,1.93-2.35,4.28-4.07,6.21-.64.64-5.78,5.56-5.14,5.56-1.93,0-1.71,5.78-4.28,5.78h-.64c-.21,0-.43.21-.43.43,0,3.21-3.85,7.06-7.06,7.7,0,4.92-4.28,5.99-5.14,10.27-1.5,1.5-3.85,2.14-6.21,3.21.21.64.21,1.07.21,1.5,0,2.57-4.49,4.28-4.49,7.49,0,.43.43.86,1.28,1.28,4.92-4.71,10.91-9.84,14.34-14.55,3.64-4.92,13.48-13.91,13.48-14.55,0-.21-.21-.86-.21-1.28,0-.64,1.93-.86,1.93-4.07,0-2.35,16.91-19.9,16.91-25.25,0-.43,0-.86-.21-1.07-3.21,4.07-7.06,7.49-10.27,11.34Z"/>
        <path class="cls-1" d="M1366.44,171.63c-.43-1.5-7.06,1.71-7.28,3-5.14,2.78-11.98,3.85-17.55,6.21-1.07,2.35-3,.43-5.14,1.07-.43.21-2.57,1.93-3,2.14-5.35.86-10.91-.21-15.41.86-.64-2.78-4.28-2.57-4.07-5.99-.86-3.85-.21-7.49.64-9.42,1.93-4.07,7.28-12.84,10.7-15.41,6.63-5.56,14.12-18.62,21.19-23.75.64-2.35,3-3.21,5.14-4.07.21-3,3.21-3,4.07-5.14,1.93-1.28,3.42-2.78,5.14-4.28,1.93-.86,1.28-4.07,5.14-3,4.28-.43,2.78,4.71,5.14,6.21-1.07,6.42-7.49,7.49-9.2,13.27-5.35,1.93-6.42,8.35-10.49,11.34-5.35,2.14-10.27,12.63-14.98,15.62-2.57,4.49-8.35,5.99-9.2,12.41,4.28,2.78,10.7-.86,13.48-3.21,7.7-.64,13.7-4.07,19.47-7.06,5.56-3,10.7-5.35,16.26-8.56,4.28-1.71,4.28-4.71,7.92-6.85,4.49-1.28,8.77-5.14,14.12-5.56,2.35,6.63-1.5,13.05-11.13,17.98-1.5,2.14-4.92,3.21-6.63,5.14-2.78,3.21-11.98,2.57-14.34,7.06ZM1409.46,51.36c2.14,4.07,2.78,9.63,3.21,15.41-2.78,3.64-10.06,1.71-13.48,0-.21-8.77-.21-17.33,10.27-15.41Z"/>
        <path class="cls-1" d="M1486.93,163.5c-3.64,1.28-4.49,3-10.27,5.56-3.64,3.21-5.56,2.35-9.42,5.35-7.92,5.56-17.76,6.21-26.11,11.34-5.99.21-13.91,2.78-18.62-2.14-.21-5.14,1.5-9.2,3.21-12.2.21-.43-.43-1.93,0-2.14,1.07-.86.21-1.71,1.07-3,.21-.64,1.5-.21,1.93-1.07,1.07-1.71,1.07-2.78,2.14-4.07.64-1.07,2.14-1.93,3-3.21.21-.21-.21-1.71,0-1.93,1.07-.86,1.28-1.07,2.14-2.14,2.14-3,8.77-15.62,11.34-20.33-8.56,3-27.18,16.91-33.6,22.68-1.93,1.93-5.14,4.07-6.42,6.42-4.71,3-6.21,8.56-10.7,11.77-3.42.21-3,4.49-6.21,5.14-2.14,1.5-3.85,3.64-6.21,5.14-5.35-.64-6.63,2.78-9.42-1.07-.43-5.14,2.35-7.06,4.07-10.27,2.78-1.93,4.28-5.35,6.21-8.13,3.21-6.21,11.98-18.19,14.55-25.47.86-3.64,4.71-21.61,5.78-24.18,1.5-3.64,3.85-3.21,8.99-2.35,3.64,3.42,0,22.26-2.57,26.54,1.5.64,0,1.07,0,2.14h-1.07c.64,3,1.71-1.5,3.21-1.07,1.93,0,.64-2.78,3.42-1.93,1.07-2.78,4.07-3.64,5.14-6.21,2.35.64,3.21-1.07,5.14-2.14,2.78-1.5,5.14-2.78,8.13-5.14,1.07-.64,2.14-2.35,3.21-3,4.92-3.42,12.84-5.99,17.55-10.27,3.64-1.71,12.41-5.99,17.55-3.21,3,6.63-.86,13.05-5.14,15.41.43,4.07-4.28,3.21-4.07,7.28-3,.43-2.35,4.49-5.14,5.14-1.5,5.78-8.99,16.48-12.41,20.12-1.28,2.78-2.57,5.14-4.28,7.28-3,.43-1.93,4.92-4.07,6.21,1.71,2.78,3.85-2.35,6.21-2.14,2.14-.86,5.56.64,7.28-.86,2.78-.21,2.78-1.28,5.14-1.93,11.13-4.71,14.55-3.85,23.75-10.49,4.49-1.71,4.07-1.28,7.71-3.85,2.57-1.71,3.85-3.21,5.35-4.71,1.71-.64,4.71-3.21,6.21-3.85,4.07-2.14,7.28-5.56,13.48-5.78,1.07,10.06-1.28,14.12-4.49,14.34-1.93,0-5.35,1.28-5.56,2.14-4.28,3.64-12.41,8.13-17.12,10.27Z"/>
        <path class="cls-1" d="M1636.73,137.82c-6.63,2.14-11.34,5.56-17.76,8.13h-.86c-2.14,0-3,1.71-5.35,1.07-.43,1.93-1.93,1.5-3.21,2.78-3.42,1.07-6.21.43-8.13,3.42-4.49,2.57-20.33,9.63-24.18,12.2-5.99,2.57-9.63,2.35-15.19,5.78-1.28,2.78-2.14,4.92-5.14,7.06.64.64,1.07,1.28,1.07,2.14,0,2.14-1.5,3.64-1.07,6.21-2.14,0-5.99,9.63-8.13,12.2,0,3-2.78,8.56-4.07,11.34-1.28.43-2.35,1.71-2.14,3.21-1.93,7.49-6.63,13.91-9.2,21.4v.86c0,2.57-3.64,2.14-3,5.35-2.57,4.49-3.85,9.63-7.28,13.48.21,1.93-13.7,21.4-15.41,25.68-3.21,3.21-5.99,7.06-8.13,11.13-4.71,3.85-10.92,11.77-16.48,13.48-1.28,3.85-16.26,6.42-19.9,6.42l-2.78-.21c-.43-1.28-1.5-2.14-3-2.14-3.64-4.71-3.85-11.13-6.21-16.48v-.86c0-3.64,1.5-6.63,1.07-10.49,2.14-3.85,3.42-7.92,4.07-12.2,7.28-11.56,12.2-24.82,22.68-34.03.21-3.21,3-4.28,5.14-5.99,3-5.99,8.56-9.84,13.27-14.55,0-1.5,6.42-7.92,8.13-8.13,5.14-7.92,15.41-14.98,22.68-20.97l3-.86c3.21-2.35,6.42-4.49,9.42-7.28l1.71-2.14,2.35-3.64c-4.07.21-9.2,1.5-12.41,4.07-5.78,0-11.56,2.14-17.33,2.14-2.57,0-3.85-1.71-7.28-1.07-3-2.14-5.14-5.35-8.13-7.28v-.86c0-2.57-1.28-4.92-1.28-7.49,0-7.06,4.07-12.84,6.42-19.26,4.49-4.28,8.77-9.2,12.2-14.55l26.75-16.26h3c9.42-4.28,11.56-6.21,22.68-6.21,5.35,0,11.56.43,16.48,3,1.71,3.64,5.56,5.56,7.06,9.2v6.21c0,4.92-6.63,8.35-10.27,10.27-1.28,2.35-1.93,4.92-3,7.28-2.14.86-3,5.14-3,7.49v.86l2.57,1.28c1.5,0,2.78,1.5,3.21,0,6.85-2.78,12.84-5.99,20.12-7.92,1.28-1.07,1.93-1.07,3-2.35,3.21-.64,5.56-1.5,8.35-2.78,1.5-2.57,20.33-8.35,24.18-8.35.21,0,.43.21.43.64.43,3-3,5.35-1.71,8.56ZM1500.41,221.5c-4.07,4.71-8.13,9.63-13.27,13.27-3.85,8.13-14.77,21.61-20.54,31.89-2.35,4.07-1.71,10.27-5.14,13.48.43.86.86,1.93.86,2.78v13.27c0,2.14,3.42.43,2.14,3.42.64.43,1.28.64,2.14.64,3.21,0,6.21-1.5,9.2-2.78l1.07-1.93c6.63-4.28,11.34-9.63,17.55-14.55.86-3,14.77-23.33,16.26-23.54,1.71-.86-.21-5.14,3.21-4.07,1.28-5.56,17.33-36.38,20.54-41.09,2.57-4.49,4.07-8.35,5.14-11.77.21-5.56,5.14-9.63,5.14-15.41,0-.43.21-.86-.43-.86-3.64,0-42.59,33.17-43.87,37.24ZM1567.18,114.71c-2.35,0-15.19,3.42-16.26,5.14-6.21-.64-18.62,9.84-24.82,12.2-1.5,3.42-4.07,6.21-7.06,8.35-1.71,3.64-4.28,6.63-7.28,9.2-.43,3.85-3,7.28-3,11.13,0,1.5.64,3,1.07,4.28,2.35.86,4.28,2.14,6.85,2.14,6.85,0,13.27-4.92,19.69-4.28,2.35-2.14,5.14-3.21,8.35-3,3.85-4.71,8.99-7.7,14.34-10.27,4.49-9.42,8.35-19.9,16.48-26.75,2.57-.64,3.64-.64,6.21,0v-.86c0-5.14-10.7-7.28-14.55-7.28Z"/>
      </g>
    </g>
  </g>
</svg>